<?xml version="1.0" encoding="UTF-8" standalone="no"?>
<!DOCTYPE svg PUBLIC "-//W3C//DTD SVG 20010904//EN"
              "http://www.w3.org/TR/2001/REC-SVG-20010904/DTD/svg10.dtd">

<svg xmlns="http://www.w3.org/2000/svg"
     width="0.42in" height="0.3in"
     viewBox="0 0 126 90">
  <path id="Selection"
        fill="#7CFC00" stroke="#7CFC00" stroke-width="1"
        d="M 56.20,-82.74
           C 65.62,-83.88 82.07,-81.83 91.44,-79.69
             151.44,-66.04 191.71,-12.93 191.00,48.09
             191.00,48.09 190.44,54.28 190.44,54.28
             187.26,99.76 160.70,139.14 119.89,159.55
             101.32,168.83 80.61,173.24 59.91,173.00
             59.91,173.00 53.72,172.44 53.72,172.44
             43.12,171.69 32.92,169.77 22.81,166.40
             3.97,160.13 -13.90,149.45 -27.89,135.28
             -64.72,97.98 -75.56,40.22 -53.68,-7.56
             -39.36,-38.83 -13.43,-63.57 19.10,-75.15
             27.44,-78.12 36.26,-80.57 45.07,-81.67
             45.07,-81.67 56.20,-82.74 56.20,-82.74 Z
           M 55.58,-64.89
           C 47.80,-63.77 40.31,-63.18 32.70,-60.91
             1.92,-51.74 -23.52,-30.78 -36.98,-1.38
             -56.88,42.06 -46.86,94.31 -11.20,126.52
             0.43,137.03 13.53,144.55 28.37,149.50
             37.34,152.49 49.22,154.95 58.67,155.07
             77.23,155.28 94.43,152.35 111.23,144.09
             123.63,137.99 135.94,128.99 145.07,118.58
             156.47,105.58 164.35,91.31 169.09,74.68
             180.33,35.31 167.59,-9.07 137.20,-36.52
             125.08,-47.47 112.43,-54.57 97.01,-59.71
             84.86,-63.75 68.35,-66.08 55.58,-64.89 Z
           M 117.42,-0.38
           C 126.24,-0.15 128.75,8.08 125.05,13.46
             125.05,13.46 105.67,33.25 105.67,33.25
             105.67,33.25 66.09,72.83 66.09,72.83
             66.09,72.83 54.34,84.57 54.34,84.57
             51.10,87.82 48.85,90.73 43.83,90.27
             38.57,89.79 33.81,83.83 30.23,80.25
             30.23,80.25 11.68,61.70 11.68,61.70
             11.68,61.70 1.51,51.18 1.51,51.18
             -2.20,46.15 -1.12,38.25 5.49,36.60
             11.39,35.13 14.68,38.74 18.48,42.53
             18.48,42.53 35.17,59.22 35.17,59.22
             36.77,60.82 42.63,67.26 44.45,67.50
             45.21,67.60 45.68,67.35 46.30,66.98
             47.30,66.38 50.82,62.74 51.87,61.70
             51.87,61.70 62.38,51.18 62.38,51.18
             62.38,51.18 96.39,17.17 96.39,17.17
             96.39,17.17 107.52,6.04 107.52,6.04
             111.01,2.56 112.35,0.30 117.42,-0.38 Z" />
</svg>
