<?xml version="1.0" encoding="UTF-8" standalone="no"?>
<!DOCTYPE svg PUBLIC "-//W3C//DTD SVG 20010904//EN"
              "http://www.w3.org/TR/2001/REC-SVG-20010904/DTD/svg10.dtd">

<svg xmlns="http://www.w3.org/2000/svg"
     width="0.606667in" height="0.853333in"
     viewBox="0 0 182 256">
  <path id="Selection"
        fill="white" stroke="white" stroke-width="1"
        d="M 43.25,28.85
           C 43.63,21.92 47.70,19.91 54.06,19.83
             54.06,19.83 60.07,19.83 60.07,19.83
             67.50,19.78 64.26,16.38 70.98,9.02
             75.98,3.55 83.85,0.05 91.30,0.05
             98.75,0.05 106.62,3.55 111.62,9.02
             118.10,16.11 115.41,19.71 121.93,19.83
             121.93,19.83 128.54,19.83 128.54,19.83
             134.90,19.91 138.97,21.92 139.35,28.85
             139.35,28.85 172.99,28.85 172.99,28.85
             180.17,28.94 181.99,32.48 182.00,39.06
             182.00,39.06 182.00,188.09 182.00,188.09
             182.00,188.09 182.00,245.18 182.00,245.18
             181.99,253.58 178.69,255.99 170.59,256.00
             170.59,256.00 39.64,256.00 39.64,256.00
             39.64,256.00 16.22,256.00 16.22,256.00
             12.82,256.00 7.74,256.46 4.81,254.75
             0.53,252.24 0.01,247.84 0.00,243.38
             0.00,243.38 0.00,78.72 0.00,78.72
             0.00,78.72 0.00,40.86 0.00,40.86
             0.01,32.69 2.18,28.86 10.81,28.85
             10.81,28.85 43.25,28.85 43.25,28.85 Z
           M 120.13,36.66
           C 115.03,36.66 109.05,37.75 105.25,33.59
             102.48,30.55 103.14,27.59 102.23,24.64
             100.69,19.61 96.45,16.84 91.30,16.84
             86.25,16.84 81.79,19.68 80.28,24.64
             79.50,27.18 80.22,30.45 77.35,33.59
             73.55,37.75 67.57,36.66 62.47,36.66
             62.60,38.20 62.79,41.05 64.10,42.07
             65.40,43.08 73.61,42.67 75.68,42.67
             75.68,42.67 114.13,42.67 114.13,42.67
             118.55,42.66 119.61,42.85 120.13,36.66 Z
           M 18.21,45.43
           C 15.97,47.31 16.82,52.47 16.82,55.29
             16.82,55.29 16.82,83.53 16.82,83.53
             16.82,83.53 16.82,197.71 16.82,197.71
             16.82,197.71 16.82,233.77 16.82,233.77
             16.83,238.96 17.03,239.16 22.22,239.17
             22.22,239.17 132.15,239.17 132.15,239.17
             132.15,239.17 161.58,239.17 161.58,239.17
             166.08,239.09 165.77,237.81 165.78,233.77
             165.78,233.77 165.78,88.94 165.78,88.94
             165.78,88.94 165.78,55.89 165.78,55.89
             165.78,53.85 166.32,46.87 164.82,45.68
             163.87,44.93 161.57,45.07 160.38,45.07
             160.38,45.07 139.35,45.07 139.35,45.07
             132.79,45.19 135.43,49.64 132.58,54.68
             130.04,59.17 126.54,59.49 121.93,59.49
             121.93,59.49 60.67,59.49 60.67,59.49
             56.32,59.49 53.05,59.30 50.38,55.28
             46.73,49.77 50.46,45.12 42.65,45.07
             42.65,45.07 18.21,45.43 18.21,45.43 Z
           M 45.65,91.73
           C 45.65,91.73 70.88,91.34 70.88,91.34
             70.88,91.34 121.33,91.34 121.33,91.34
             128.42,91.34 143.38,88.92 142.24,100.36
             141.63,106.48 137.34,107.56 132.15,107.57
             132.15,107.57 61.87,107.57 61.87,107.57
             58.84,107.57 47.10,107.91 45.05,107.12
             42.31,106.07 40.32,103.23 39.98,100.36
             39.47,96.12 41.96,93.29 45.65,91.73 Z
           M 45.65,134.40
           C 45.65,134.40 70.88,134.01 70.88,134.01
             70.88,134.01 121.33,134.01 121.33,134.01
             128.42,134.01 143.38,131.58 142.24,143.02
             141.63,149.15 137.34,150.23 132.15,150.23
             132.15,150.23 61.87,150.23 61.87,150.23
             58.84,150.23 47.10,150.58 45.05,149.79
             42.31,148.74 40.32,145.90 39.98,143.02
             39.47,138.79 41.96,135.95 45.65,134.40 Z
           M 45.65,177.07
           C 45.65,177.07 70.88,176.68 70.88,176.68
             70.88,176.68 121.33,176.68 121.33,176.68
             121.33,176.68 136.35,177.02 136.35,177.02
             140.14,178.10 142.63,181.78 142.24,185.69
             141.55,192.61 135.38,193.49 129.74,193.50
             129.74,193.50 52.26,193.50 52.26,193.50
             49.00,193.50 45.48,193.44 42.84,191.22
             38.28,187.37 38.83,179.94 45.65,177.07 Z" />
</svg>
