<?xml version="1.0" encoding="UTF-8" standalone="no"?>
<!DOCTYPE svg PUBLIC "-//W3C//DTD SVG 20010904//EN"
              "http://www.w3.org/TR/2001/REC-SVG-20010904/DTD/svg10.dtd">

<svg xmlns="http://www.w3.org/2000/svg"
     width="0.753333in" height="0.853333in"
     viewBox="0 0 226 256">
  <path id="Selection"
        fill="white" stroke="white" stroke-width="1"
        d="M 109.74,0.25
           C 118.70,-1.00 122.99,3.00 130.38,7.20
             130.38,7.20 166.24,27.98 166.24,27.98
             166.24,27.98 203.18,49.35 203.18,49.35
             209.84,53.25 219.03,57.69 223.00,64.54
             225.29,68.50 225.99,73.59 226.00,78.10
             226.00,78.10 226.00,184.95 226.00,184.95
             225.98,196.78 217.65,200.03 208.62,205.17
             208.62,205.17 159.72,233.91 159.72,233.91
             159.72,233.91 134.19,248.87 134.19,248.87
             127.33,252.89 122.90,256.09 114.63,256.00
             107.89,255.92 101.86,252.34 96.16,249.10
             96.16,249.10 67.91,232.76 67.91,232.76
             67.91,232.76 17.38,203.54 17.38,203.54
             8.00,198.21 0.02,195.61 0.00,183.32
             0.00,183.32 0.00,74.85 0.00,74.85
             0.01,70.21 0.71,65.24 3.32,61.29
             7.00,55.70 15.41,51.84 21.19,48.58
             21.19,48.58 78.77,16.58 78.77,16.58
             78.77,16.58 96.70,6.59 96.70,6.59
             100.35,4.51 105.82,1.18 109.74,0.25 Z
           M 111.91,5.61
           C 107.24,6.70 93.68,14.92 88.55,17.73
             88.55,17.73 36.40,46.77 36.40,46.77
             36.40,46.77 19.56,56.18 19.56,56.18
             16.92,57.71 14.44,59.39 15.01,62.91
             15.54,66.24 18.57,67.54 21.19,69.03
             21.19,69.03 36.40,77.89 36.40,77.89
             36.40,77.89 93.44,111.11 93.44,111.11
             93.44,111.11 105.94,118.39 105.94,118.39
             109.18,120.23 111.79,121.98 115.72,121.31
             118.83,120.78 122.76,118.22 125.50,116.62
             125.50,116.62 140.16,108.04 140.16,108.04
             140.16,108.04 189.06,79.51 189.06,79.51
             189.06,79.51 204.81,70.36 204.81,70.36
             207.42,68.87 210.38,67.39 210.62,64.00
             210.86,60.70 208.39,59.04 205.90,57.57
             205.90,57.57 189.60,48.12 189.60,48.12
             189.60,48.12 134.73,16.42 134.73,16.42
             134.73,16.42 122.24,9.21 122.24,9.21
             118.58,7.07 116.37,5.31 111.91,5.61 Z
           M 107.57,46.35
           C 114.82,45.35 129.25,46.40 131.26,55.32
             132.92,62.72 123.79,66.78 117.89,67.71
             117.89,67.71 110.83,67.71 110.83,67.71
             104.89,67.72 95.09,64.52 94.59,57.49
             94.43,55.13 95.26,53.29 96.82,51.55
             97.76,50.49 98.74,49.73 99.96,49.00
             102.46,47.52 104.77,46.96 107.57,46.35 Z
           M 9.24,71.92
           C 4.67,74.39 5.98,79.49 5.98,84.07
             5.98,84.07 5.98,118.78 5.98,118.78
             5.98,118.78 5.98,183.32 5.98,183.32
             5.98,185.24 5.87,186.97 6.77,188.75
             8.31,191.81 11.29,193.32 14.12,194.94
             14.12,194.94 25.53,201.55 25.53,201.55
             25.53,201.55 88.55,238.02 88.55,238.02
             88.55,238.02 104.31,246.85 104.31,246.85
             107.32,247.76 110.31,245.99 111.29,242.98
             111.41,241.98 111.37,240.26 111.29,239.19
             111.29,239.19 111.29,136.14 111.29,136.14
             111.36,128.65 109.45,127.32 103.22,123.74
             103.22,123.74 96.70,119.95 96.70,119.95
             96.70,119.95 52.70,94.45 52.70,94.45
             52.70,94.45 23.36,77.45 23.36,77.45
             19.29,75.03 14.10,70.90 9.24,71.92 Z
           M 214.59,73.50
           C 211.42,74.06 208.67,76.06 205.90,77.64
             205.90,77.64 191.23,86.09 191.23,86.09
             191.23,86.09 138.53,116.46 138.53,116.46
             138.53,116.46 126.58,123.33 126.58,123.33
             124.00,124.86 121.71,125.87 120.06,128.54
             118.50,131.08 118.44,133.82 118.50,136.68
             118.50,136.68 118.50,238.64 118.50,238.64
             118.43,239.78 118.40,241.36 118.50,242.44
             119.39,245.66 122.15,247.84 125.50,246.97
             127.63,246.41 138.53,239.70 141.25,238.11
             141.25,238.11 201.55,202.74 201.55,202.74
             205.87,200.17 216.58,194.78 218.93,190.91
             220.44,188.43 220.56,185.06 220.57,182.24
             220.57,182.24 220.57,122.03 220.57,122.03
             220.57,122.03 220.57,81.90 220.57,81.90
             220.51,77.41 219.80,73.88 214.59,73.50 Z
           M 198.29,101.13
           C 208.59,99.72 212.60,107.63 209.83,116.61
             207.36,124.60 199.71,130.94 191.23,130.70
             183.58,130.49 180.89,123.16 182.48,116.61
             184.38,108.82 190.49,102.87 198.29,101.13 Z
           M 26.62,106.02
           C 35.52,104.80 43.85,111.68 46.53,119.86
             49.28,128.30 46.12,135.82 36.40,135.59
             27.40,135.37 19.22,125.89 19.02,117.15
             18.89,111.40 20.59,107.51 26.62,106.02 Z
           M 172.22,145.59
           C 181.28,144.52 185.18,151.99 183.34,160.00
             181.69,167.19 174.68,174.10 167.33,175.22
             157.79,176.67 153.61,168.98 155.79,160.54
             157.81,152.71 164.40,147.05 172.22,145.59 Z
           M 69.54,177.64
           C 78.67,176.14 87.06,182.44 89.99,190.92
             92.05,196.89 91.70,205.08 84.21,206.90
             75.19,209.08 66.09,201.20 63.43,193.08
             61.36,186.80 62.49,179.90 69.54,177.64 Z
           M 145.60,192.29
           C 147.98,191.90 151.49,191.71 153.74,192.66
             159.41,195.06 159.93,202.03 158.40,207.19
             156.11,214.85 148.01,222.36 139.62,221.78
             133.62,221.36 130.05,216.23 130.48,210.44
             131.12,202.03 137.62,194.64 145.60,192.29 Z
           M 399.85,38.51" />
</svg>
