<?xml version="1.0" encoding="UTF-8" standalone="no"?>
<!DOCTYPE svg PUBLIC "-//W3C//DTD SVG 20010904//EN"
              "http://www.w3.org/TR/2001/REC-SVG-20010904/DTD/svg10.dtd">

<svg xmlns="http://www.w3.org/2000/svg"
     width="0.73in" height="0.853333in"
     viewBox="0 0 219 256">
  <path id="Selection"
        fill="white" stroke="white" stroke-width="1"
        d="M 55.06,55.03
           C 55.06,46.22 56.06,39.64 59.87,31.54
             62.82,25.27 67.78,18.32 73.00,13.78
             100.63,-10.27 144.19,-1.60 159.42,32.15
             163.04,40.18 163.94,46.38 163.94,55.03
             163.94,55.03 207.86,55.03 207.86,55.03
             210.70,55.04 212.83,54.90 215.26,56.67
             219.96,60.09 220.34,67.11 215.84,70.85
             212.34,73.78 205.49,72.97 201.06,72.97
             201.06,72.97 201.06,175.00 201.06,175.00
             201.06,175.00 201.06,226.32 201.06,226.32
             200.84,244.54 189.67,255.97 171.36,256.00
             171.36,256.00 47.64,256.00 47.64,256.00
             34.34,255.98 23.67,249.98 19.40,236.83
             18.41,233.79 17.95,228.33 17.94,225.08
             17.94,225.08 17.94,72.97 17.94,72.97
             13.51,72.97 6.66,73.78 3.16,70.85
             -1.34,67.11 -0.96,60.09 3.74,56.67
             6.17,54.90 8.30,55.04 11.14,55.03
             11.14,55.03 55.06,55.03 55.06,55.03 Z
           M 146.62,55.03
           C 145.67,43.38 142.69,34.67 133.63,26.70
             116.77,11.87 89.85,16.48 78.09,35.25
             74.22,41.43 72.96,47.88 72.38,55.03
             72.38,55.03 146.62,55.03 146.62,55.03 Z
           M 183.12,72.97
           C 183.12,72.97 35.88,72.97 35.88,72.97
             35.88,72.97 35.88,199.73 35.88,199.73
             35.88,199.73 35.88,221.99 35.88,221.99
             35.88,225.43 35.44,230.11 37.17,233.12
             39.80,237.68 43.55,238.06 48.25,238.07
             48.25,238.07 151.57,238.07 151.57,238.07
             151.57,238.07 171.98,238.07 171.98,238.07
             176.45,238.01 180.06,236.85 182.15,232.50
             183.20,230.30 183.11,228.07 183.12,225.70
             183.12,225.70 183.12,72.97 183.12,72.97 Z
           M 80.42,91.85
           C 93.62,90.26 90.94,106.12 90.94,114.40
             90.94,114.40 90.94,192.93 90.94,192.93
             90.94,192.93 90.60,212.71 90.60,212.71
             89.51,216.84 85.29,219.68 81.04,219.17
             74.39,218.37 73.01,212.74 73.00,207.15
             73.00,207.15 73.00,119.96 73.00,119.96
             73.00,119.96 73.00,103.27 73.00,103.27
             73.01,100.41 73.16,97.75 74.85,95.29
             76.31,93.17 78.07,92.54 80.42,91.85 Z
           M 135.48,91.82
           C 143.80,91.00 145.99,96.86 146.00,103.88
             146.00,103.88 146.00,192.93 146.00,192.93
             146.00,196.74 146.37,209.95 145.50,212.71
             144.25,216.71 140.37,219.68 136.10,219.17
             129.40,218.38 128.07,213.50 128.06,207.77
             128.06,207.77 128.06,119.96 128.06,119.96
             128.06,119.96 128.06,105.12 128.06,105.12
             128.06,102.27 127.77,99.07 129.10,96.47
             130.58,93.59 132.49,92.60 135.48,91.82 Z" />
</svg>
