<?xml version="1.0" encoding="UTF-8" standalone="no"?>
<!DOCTYPE svg PUBLIC "-//W3C//DTD SVG 20010904//EN"
              "http://www.w3.org/TR/2001/REC-SVG-20010904/DTD/svg10.dtd">

<svg xmlns="http://www.w3.org/2000/svg"
     width="0.426667in" height="0.426667in"
     viewBox="0 0 128 128">
  <path id="Selection"
      fill="red" stroke="red" stroke-width="1"
        d="M 6.02,0.61
           C 14.11,-0.18 18.73,6.73 24.00,12.00
             24.00,12.00 51.00,39.00 51.00,39.00
             53.19,41.19 60.55,49.16 63.00,49.80
             66.66,50.77 72.57,43.43 75.00,41.00
             75.00,41.00 107.00,9.00 107.00,9.00
             111.32,4.69 119.09,-3.89 125.49,2.51
             132.22,9.24 122.42,17.58 118.00,22.00
             118.00,22.00 89.00,51.00 89.00,51.00
             86.81,53.19 78.84,60.55 78.20,63.00
             77.21,66.74 85.46,73.46 88.00,76.00
             88.00,76.00 120.00,108.00 120.00,108.00
             124.01,112.03 130.12,117.57 126.68,123.87
             125.65,125.76 124.06,126.88 121.98,127.39
             115.27,129.04 109.21,121.21 105.00,117.00
             105.00,117.00 77.00,89.00 77.00,89.00
             74.81,86.81 67.45,78.84 65.00,78.20
             61.16,77.18 52.75,87.25 50.00,90.00
             50.00,90.00 25.00,115.00 25.00,115.00
             21.95,118.05 15.55,125.00 12.00,126.68
             5.70,129.67 -1.07,125.11 0.61,118.00
             1.71,113.35 8.56,107.44 12.00,104.00
             12.00,104.00 26.00,90.00 26.00,90.00
             26.00,90.00 43.00,73.00 43.00,73.00
             44.68,71.31 49.24,67.14 49.80,65.00
             50.79,61.26 42.54,54.54 40.00,52.00
             40.00,52.00 8.00,20.00 8.00,20.00
             2.56,14.52 -5.38,5.20 6.02,0.61 Z" />
</svg>
